<?xml version="1.0" standalone="no"?>
<!DOCTYPE svg PUBLIC "-//W3C//DTD SVG 20010904//EN"
 "http://www.w3.org/TR/2001/REC-SVG-20010904/DTD/svg10.dtd">
<svg version="1.0" xmlns="http://www.w3.org/2000/svg"
 width="71.000000pt" height="71.000000pt" viewBox="0 0 71.000000 71.000000"
 preserveAspectRatio="xMidYMid meet">
<metadata>
Created by potrace 1.11, written by Peter Selinger 2001-2013
</metadata>
<g transform="translate(0.000000,71.000000) scale(0.100000,-0.100000)"
fill="#000000" stroke="none">
<path d="M307 698 c-32 -4 -78 -16 -102 -27 -63 -28 -138 -102 -172 -169 -25
-51 -28 -67 -27 -152 1 -113 18 -159 87 -235 67 -75 140 -108 247 -111 67 -2
96 2 139 19 71 28 153 104 188 175 25 50 28 68 28 152 0 83 -3 102 -27 150
-69 139 -213 218 -361 198z m90 -168 c1 -69 2 -131 2 -137 1 -7 10 -13 21 -13
19 0 20 7 20 130 0 77 4 130 10 130 18 0 85 -42 118 -73 70 -67 103 -187 80
-289 -18 -85 -109 -188 -185 -212 -22 -7 -23 -5 -23 62 0 65 1 70 20 65 26 -7
78 15 90 38 18 32 11 76 -14 100 -23 22 -23 23 -5 38 20 18 27 55 16 87 -8 22
-46 44 -77 44 -27 0 -26 -37 1 -45 29 -10 41 -46 21 -67 -13 -16 -34 -18 -148
-18 l-133 0 2 43 c2 37 5 42 28 45 23 3 25 0 23 -38 -1 -35 1 -40 21 -40 20 0
22 4 20 41 -2 35 0 40 19 38 51 -4 66 1 66 21 0 17 -7 20 -43 20 l-43 0 2 73
c1 39 2 75 3 78 0 4 20 6 44 5 l42 -1 2 -125z m-136 103 c1 -5 2 -38 3 -74 l2
-65 -51 4 -51 4 1 -153 0 -154 38 -3 c21 -2 44 1 50 7 10 7 12 -7 12 -59 0
-38 -3 -71 -6 -75 -10 -9 -60 16 -106 53 -48 38 -98 130 -108 199 -14 88 43
222 117 275 51 37 97 55 99 41z m149 -310 c-13 -3 -15 -26 -14 -138 2 -131 1
-135 -20 -140 -11 -3 -30 -3 -41 -1 -11 3 -22 5 -25 5 -3 1 -5 32 -5 71 l0 70
43 0 c35 0 42 3 42 20 0 21 -1 22 -52 24 -32 1 -33 2 -32 44 1 37 -1 42 -22
42 -21 0 -22 -4 -19 -52 2 -29 1 -47 -3 -41 -4 5 -17 9 -29 8 -20 -1 -23 3
-21 39 0 23 6 44 12 48 6 4 54 7 106 6 52 -1 88 -3 80 -5z m92 -16 c20 -31 1
-64 -40 -72 -18 -3 -21 3 -24 47 l-3 50 30 -6 c16 -4 33 -12 37 -19z"/>
</g>
</svg>
