<?xml version="1.0" encoding="utf-8"?>
<!-- Generator: Adobe Illustrator 21.0.0, SVG Export Plug-In . SVG Version: 6.00 Build 0)  -->
<svg version="1.1" id="Layer_1" xmlns="http://www.w3.org/2000/svg" xmlns:xlink="http://www.w3.org/1999/xlink" x="0px" y="0px"
	 viewBox="0 0 223.9 223.9" style="enable-background:new 0 0 223.9 223.9;" xml:space="preserve">
<style type="text/css">
	.st0{fill:#E0BE4F;}
	.st1{fill:#FFFFFF;}
</style>
<title>bh-header</title>
<g>
	<g>
		<g>
			<path class="st0" d="M64.2,61.9l-2.6,2.5l-6.4-6.7l2.5-2.4c0.7-0.7,1.5-1.1,2.2-1.3c0.8-0.1,1.4,0.1,2.1,0.8
				c0.4,0.4,0.6,1,0.5,1.8c0.5-0.1,0.9-0.1,1.4,0c0.4,0.1,0.8,0.3,1.1,0.7c0.6,0.7,0.9,1.4,0.7,2.2C65.4,60.4,65,61.2,64.2,61.9z
				 M58.7,56.8l-0.8,0.8l1.3,1.4l0.7-0.6c0.3-0.3,0.6-0.6,0.7-1c0.1-0.3,0-0.6-0.2-0.8C59.9,56,59.3,56.1,58.7,56.8z M61.5,59.1
				l-1.1,1.1l1.5,1.6l1.1-1c0.3-0.3,0.5-0.6,0.6-0.9c0.1-0.3,0-0.6-0.3-0.8c-0.3-0.3-0.5-0.4-0.9-0.4C62.1,58.6,61.8,58.8,61.5,59.1
				z"/>
			<path class="st0" d="M74.4,51.7l1.2,1.2l-5.4,3.8l-5.3-7.6l4.8-3.3l1.2,1.2l-3.3,2.3l1.2,1.7l2.4-1.7l1.2,1.2l-2.6,1.8l1.2,1.8
				L74.4,51.7z"/>
			<path class="st0" d="M78.8,44.9l2.4,5l-1.9,0.9l-3.9-8.4l1.8-0.9L83,45l-2.4-5.1l1.9-0.9l3.9,8.4l-1.8,0.9L78.8,44.9z"/>
			<path class="st0" d="M103.1,33.7l1.5,9.1l-2.1,0.4l-0.6-3.7L98.5,40l0.6,3.7L97,44.1L95.5,35l2.1-0.4l0.6,3.8l3.4-0.6l-0.6-3.7
				L103.1,33.7z"/>
			<path class="st0" d="M113.8,33c1,0,1.8,0.2,2.5,0.7c0.7,0.4,1.2,1,1.6,1.7s0.5,1.5,0.5,2.4c0,0.9-0.2,1.8-0.6,2.5
				c-0.4,0.7-1,1.3-1.7,1.7c-0.7,0.4-1.5,0.6-2.4,0.6c-1,0-1.8-0.2-2.5-0.7c-0.7-0.4-1.2-1-1.6-1.7c-0.4-0.7-0.5-1.5-0.5-2.4
				c0-0.9,0.2-1.8,0.6-2.5s1-1.3,1.7-1.7C112,33.2,112.9,33,113.8,33z M111.2,37.8c0,0.9,0.2,1.6,0.6,2.2c0.4,0.6,1,0.9,1.8,0.9
				c0.5,0,0.9-0.1,1.3-0.3s0.7-0.6,0.9-1c0.2-0.5,0.3-1,0.4-1.7c0-0.6-0.1-1.1-0.3-1.5c-0.2-0.5-0.5-0.8-0.8-1.1s-0.8-0.4-1.3-0.4
				c-0.5,0-0.9,0.1-1.3,0.4c-0.4,0.2-0.7,0.6-0.9,1.1C111.3,36.7,111.2,37.2,111.2,37.8z"/>
			<path class="st0" d="M129.5,44.5l-0.3-6.5l-3,5.8l-2-0.4l-0.7-9.5l2.1,0.2l0.2,6.9l2.9-6.1l2.1,0.5l0.2,6.8L134,36l2.1,0.5
				l-4.6,8.5L129.5,44.5z"/>
			<path class="st0" d="M136.9,46.6l7-7l1.8,0.8l-0.5,9.8l-2-0.6l0.2-2.3l-3.1-1.4l-1.5,1.5L136.9,46.6z M141.6,44.6l2,0.9l0.2-3.1
				L141.6,44.6z"/>
			<path class="st0" d="M148.7,52.3l5.1-7.7l2.8,1.9c0.9,0.6,1.5,1.3,1.8,2.1c0.3,0.8,0.2,1.6-0.4,2.5c-0.3,0.5-0.7,0.8-1.1,1
				c-0.4,0.2-0.9,0.3-1.4,0.3l-0.3,4.4l-2-1.3l0.3-3.6l-1.4-0.9l-1.8,2.7L148.7,52.3z M155.7,47.9l-1-0.7l-1.5,2.2l1,0.7
				c0.4,0.3,0.8,0.4,1.1,0.3c0.4,0,0.7-0.2,0.9-0.6c0.3-0.4,0.3-0.7,0.2-1.1C156.4,48.5,156.1,48.2,155.7,47.9z"/>
			<path class="st0" d="M161.2,61.9l-2.8-2.6l6.4-6.7l2.8,2.7c0.7,0.6,1.1,1.3,1.3,2.1c0.2,0.7,0.2,1.5-0.1,2.2
				c-0.2,0.7-0.7,1.4-1.3,2.1c-0.7,0.7-1.4,1.2-2.1,1.4c-0.7,0.3-1.5,0.3-2.2,0.1S161.8,62.5,161.2,61.9z M166.3,56.5l-1.2-1.2
				l-4,4.2l1.2,1.1c0.5,0.5,1.1,0.7,1.7,0.6c0.6-0.1,1.3-0.5,2-1.2c0.6-0.6,1-1.3,1-1.9C167.1,57.5,166.9,56.9,166.3,56.5z"/>
		</g>
		<g>
			<path class="st0" d="M61,173.5l-2.9-2.5l6-7l2.9,2.5c0.7,0.6,1.2,1.3,1.4,2c0.2,0.7,0.3,1.4,0.1,2.2c-0.2,0.7-0.6,1.4-1.2,2.1
				c-0.6,0.7-1.3,1.2-2,1.5s-1.5,0.4-2.2,0.3C62.4,174.4,61.7,174,61,173.5z M65.9,167.7l-1.3-1.1l-3.8,4.4l1.2,1.1
				c0.5,0.4,1.1,0.6,1.7,0.5s1.3-0.6,1.9-1.3c0.6-0.7,0.9-1.3,0.9-1.9C66.7,168.7,66.4,168.2,65.9,167.7z"/>
			<path class="st0" d="M75.6,181.5l-0.6,1.6l-5.7-3.4l4.8-7.9l5,3l-0.6,1.6l-3.4-2l-1.1,1.8l2.5,1.5l-0.6,1.6l-2.7-1.6l-1.1,1.9
				L75.6,181.5z"/>
			<path class="st0" d="M79.7,184.8l1.2-1.3c0.2,0.3,0.5,0.5,0.8,0.8c0.3,0.3,0.7,0.5,1,0.6c0.4,0.2,0.8,0.2,1.1,0.2
				s0.5-0.2,0.6-0.4c0.1-0.2,0-0.3-0.1-0.5c-0.1-0.2-0.3-0.5-0.6-0.9c-0.1-0.1-0.2-0.2-0.3-0.4c-0.4-0.6-0.8-1-1-1.4
				s-0.4-0.8-0.5-1.2c-0.1-0.4-0.1-0.9,0.1-1.3c0.2-0.4,0.5-0.8,0.9-1.1c0.4-0.3,0.9-0.4,1.4-0.4c0.5,0,1.1,0.1,1.8,0.4
				c0.4,0.2,0.8,0.4,1.2,0.7c0.4,0.3,0.7,0.6,1,1l-1.2,1.2c-0.3-0.3-0.6-0.6-0.9-0.8c-0.2-0.2-0.5-0.3-0.8-0.4
				c-0.3-0.1-0.6-0.2-0.8-0.1c-0.3,0-0.4,0.2-0.5,0.4c-0.1,0.2-0.1,0.4,0,0.6c0.1,0.2,0.3,0.5,0.6,0.8c0.1,0.1,0.2,0.2,0.3,0.4
				c0.5,0.6,0.8,1.1,1,1.4c0.2,0.4,0.4,0.8,0.5,1.2c0.1,0.4,0.1,0.9-0.1,1.3c-0.2,0.5-0.5,0.8-0.9,1.1c-0.4,0.3-0.9,0.4-1.5,0.4
				c-0.6,0-1.2-0.1-1.9-0.4c-0.4-0.2-0.8-0.4-1.3-0.8C80.3,185.4,80,185.1,79.7,184.8z"/>
			<path class="st0" d="M95.2,181l-2.4,8.9l-2-0.6l2.4-8.9L95.2,181z"/>
			<path class="st0" d="M104.7,188.5l-1.7-0.2l0.4-1.6l3.5,0.4l-0.6,4.7c-0.4,0.2-0.9,0.3-1.4,0.3s-1.1,0-1.7,0
				c-1-0.1-1.8-0.4-2.4-0.9s-1.1-1.1-1.4-1.9c-0.3-0.8-0.4-1.6-0.3-2.5c0.1-0.9,0.4-1.8,1-2.4c0.5-0.7,1.2-1.2,2-1.5
				c0.8-0.3,1.7-0.4,2.6-0.3c0.4,0.1,0.9,0.2,1.4,0.4c0.5,0.2,0.9,0.4,1.3,0.7l-0.8,1.4c-0.4-0.2-0.8-0.4-1.1-0.5
				c-0.3-0.1-0.6-0.2-0.9-0.2c-0.5-0.1-0.9,0-1.4,0.2c-0.4,0.2-0.8,0.5-1.1,0.9c-0.3,0.4-0.5,1-0.6,1.6c-0.1,0.6,0,1.2,0.1,1.7
				c0.2,0.5,0.4,0.9,0.8,1.1c0.4,0.3,0.8,0.4,1.2,0.5c0.3,0,0.7,0.1,1.1,0L104.7,188.5z"/>
			<path class="st0" d="M114.2,186.9l0.2,5.5l-2.1,0.1l-0.4-9.2l2-0.1l4.2,5.4l-0.3-5.6l2.1-0.1l0.4,9.2l-2,0.1L114.2,186.9z"/>
			<path class="st0" d="M128.8,187.3c-0.3,0.1-0.6,0-0.9-0.2c-0.3-0.2-0.4-0.4-0.5-0.7c-0.1-0.3,0-0.6,0.2-0.9
				c0.2-0.3,0.4-0.4,0.7-0.5c0.3-0.1,0.6,0,0.8,0.2c0.3,0.2,0.4,0.4,0.5,0.7c0.1,0.3,0,0.6-0.1,0.8
				C129.3,187.1,129.1,187.3,128.8,187.3z"/>
			<path class="st0" d="M139.3,184.8l1.1,2.8l-2,0.8l-3.3-8.6l3.2-1.2c0.7-0.3,1.3-0.4,1.9-0.4c0.6,0,1.2,0.2,1.6,0.5
				s0.8,0.8,1.1,1.5c0.2,0.6,0.3,1.2,0.1,1.8c-0.2,0.6-0.5,1.1-0.9,1.5s-1,0.8-1.7,1L139.3,184.8z M138.8,180l-1.1,0.4l1,2.7
				l1.2-0.5c0.4-0.2,0.7-0.4,0.9-0.7c0.2-0.3,0.2-0.7,0-1.1c-0.2-0.5-0.4-0.8-0.8-0.9C139.7,179.8,139.3,179.9,138.8,180z"/>
			<path class="st0" d="M152.9,177.4l-1.5,0.9l-0.7-1.5l3-1.8l2.4,4c-0.2,0.4-0.5,0.7-0.9,1.1c-0.4,0.4-0.9,0.7-1.3,1
				c-0.8,0.5-1.7,0.7-2.5,0.8c-0.8,0-1.6-0.2-2.3-0.6c-0.7-0.4-1.3-1-1.8-1.8c-0.5-0.8-0.7-1.7-0.7-2.5c0-0.9,0.2-1.6,0.7-2.4
				c0.4-0.7,1.1-1.3,1.9-1.8c0.4-0.2,0.8-0.4,1.3-0.6c0.5-0.2,1-0.3,1.4-0.2l0.2,1.6c-0.5,0.1-0.9,0.2-1.1,0.3
				c-0.3,0.1-0.6,0.2-0.9,0.4c-0.4,0.2-0.7,0.6-1,1c-0.2,0.4-0.4,0.9-0.3,1.4c0,0.5,0.2,1.1,0.5,1.6c0.3,0.6,0.7,1,1.1,1.2
				s0.9,0.4,1.3,0.4s0.9-0.1,1.3-0.4c0.3-0.2,0.6-0.4,0.9-0.7L152.9,177.4z"/>
			<path class="st0" d="M161.2,163.9l6,7.1l-1.6,1.4l-2.4-2.9l-2.6,2.2l2.4,2.9l-1.6,1.4l-6-7.1l1.6-1.4l2.5,3l2.6-2.2l-2.5-2.9
				L161.2,163.9z"/>
		</g>
	</g>
	<g>
		<path class="st1" d="M111.9,0C50.2,0,0,50.2,0,111.9s50.2,111.9,111.9,111.9s111.9-50.2,111.9-111.9S173.6,0,111.9,0z
			 M117.3,115.6v31.2c-1.8,0.3-3.6,0.4-5.3,0.4c-1.8,0-3.5-0.1-5.4-0.4v-31.2h-4.4v30.1c-14.8-4.3-25.5-17.8-25.5-33.8
			c0-16,10.7-29.6,25.5-33.8v30.5h4.4V77.1c1.8-0.3,3.6-0.4,5.4-0.4c1.8,0,3.5,0.1,5.3,0.4v31.5h4.4V78.1
			c14.8,4.3,25.5,17.8,25.5,33.8c0,16-10.7,29.6-25.5,33.8v-30.1H117.3z M149.7,99.2l63.3-25c4.4,11.7,6.8,24.5,6.8,37.7
			c0,13.3-2.4,26-6.8,37.7l-63.3-25c1.4-4,2.1-8.3,2.1-12.8C151.8,107.5,151.1,103.2,149.7,99.2z M111.9,4
			c44.8,0,83.4,27.5,99.6,66.5l-63.3,25C142,81.7,128.1,72,111.9,72s-30,9.6-36.3,23.4l-63.3-25C28.6,31.5,67.1,4,111.9,4z
			 M10.8,74.2l63.3,25c-1.4,4-2.1,8.3-2.1,12.8c0,4.5,0.7,8.7,2.1,12.8l-63.3,25C6.4,137.9,4,125.2,4,111.9C4,98.7,6.4,86,10.8,74.2
			z M111.9,219.9c-44.8,0-83.4-27.5-99.6-66.5l63.3-25c6.3,13.8,20.2,23.4,36.3,23.4c16.1,0,30-9.6,36.3-23.4l63.3,25
			C195.3,192.4,156.8,219.9,111.9,219.9z"/>
		<rect x="107.8" y="125.3" class="st1" width="8.2" height="4.6"/>
		<rect x="107.8" y="95" class="st1" width="8.2" height="4.6"/>
		<path class="st1" d="M124.3,114.4c3.9,0,5.9,2.5,5.9,5.4c0,3.4-2.2,5.5-5.9,5.5h-1.5v4.6h2.6c6.4,0,10.1-3.9,10.1-9.4
			c0-4.2-3-8-6.7-8.6c3.2-0.7,6.1-3.6,6.1-8c0-5.1-3.6-8.9-9.8-8.9h-2.2v4.6h1.2c3.5,0,5.4,2.2,5.4,5.1c0,2.9-1.9,5.1-5.4,5.1H96
			V99.6h5V95H90.8v34.9H101v-4.6h-5v-10.9h28.2H124.3z"/>
	</g>
	<g>
		<g>
			<path class="st1" d="M23.7,112.8l0.2,1.6h-5.5v-7.5h4.9l0.2,1.6h-3.1v1.4h2.3l0.2,1.6h-2.5v1.4H23.7z"/>
			<path class="st1" d="M29.3,113.9l0.7-1.5c0.2,0.1,0.5,0.2,0.8,0.3c0.3,0.1,0.7,0.1,0.9,0.1c0.3,0,0.5-0.1,0.7-0.2
				c0.2-0.1,0.3-0.3,0.3-0.4c0-0.1-0.1-0.2-0.2-0.3c-0.1-0.1-0.3-0.2-0.6-0.4l-0.3-0.2c-0.5-0.3-0.9-0.5-1.2-0.7
				c-0.3-0.2-0.5-0.4-0.7-0.8c-0.2-0.3-0.3-0.7-0.3-1c0-0.4,0.1-0.8,0.3-1.1c0.2-0.3,0.6-0.6,1-0.8c0.4-0.2,0.9-0.3,1.5-0.3
				c0.4,0,0.8,0.1,1.2,0.2s0.7,0.3,1,0.4l-0.6,1.3c-0.4-0.1-0.7-0.2-0.9-0.3s-0.4-0.1-0.7-0.1c-0.2,0-0.4,0.1-0.5,0.2
				c-0.1,0.1-0.2,0.2-0.2,0.4c0,0.1,0.1,0.2,0.2,0.3s0.3,0.2,0.6,0.3l0.4,0.2c0.5,0.3,0.8,0.5,1.2,0.7s0.6,0.5,0.8,0.8
				c0.2,0.3,0.3,0.6,0.3,1c0,0.4-0.1,0.8-0.4,1.1s-0.6,0.6-1,0.8c-0.5,0.2-1,0.3-1.6,0.3c-0.4,0-0.8-0.1-1.3-0.2
				C29.9,114.2,29.5,114.1,29.3,113.9z"/>
			<path class="st1" d="M39.8,106.9h6.4l0.2,1.6H44v5.9h-2v-5.9h-2.2V106.9z"/>
			<path class="st1" d="M52.7,114.4c-0.3,0-0.5-0.1-0.7-0.3c-0.2-0.2-0.3-0.4-0.3-0.7c0-0.3,0.1-0.5,0.3-0.7
				c0.2-0.2,0.4-0.3,0.7-0.3c0.3,0,0.5,0.1,0.7,0.3c0.2,0.2,0.3,0.4,0.3,0.7c0,0.3-0.1,0.5-0.3,0.7
				C53.2,114.3,52.9,114.4,52.7,114.4z"/>
		</g>
		<g>
			<path class="st1" d="M174.2,108c0.8,0,1.5,0.2,1.9,0.5s0.7,0.8,0.7,1.5c0,0.4-0.1,0.8-0.4,1.2c-0.3,0.4-0.7,0.8-1.2,1.3l-0.4,0.4
				h2l0.1,1.6h-5v-1.2l2.1-1.8c0.1-0.1,0.1-0.1,0.3-0.2c0.3-0.2,0.5-0.4,0.6-0.6c0.1-0.2,0.2-0.3,0.2-0.5c0-0.2-0.1-0.3-0.2-0.4
				c-0.2-0.1-0.4-0.1-0.7-0.1c-0.3,0-0.6,0.1-0.9,0.2c-0.3,0.1-0.6,0.2-0.9,0.4l-0.3-1.6C172.7,108.2,173.4,108,174.2,108z"/>
			<path class="st1" d="M180.4,111.3c0-0.6,0.1-1.2,0.4-1.7c0.3-0.5,0.7-0.9,1.2-1.2c0.5-0.3,1.1-0.4,1.8-0.4s1.3,0.1,1.8,0.4
				c0.5,0.3,1,0.7,1.2,1.1c0.3,0.5,0.4,1,0.4,1.7c0,0.6-0.1,1.2-0.4,1.7s-0.7,0.9-1.2,1.2c-0.5,0.3-1.1,0.4-1.8,0.4
				c-0.7,0-1.3-0.1-1.8-0.4c-0.5-0.3-0.9-0.7-1.2-1.2C180.6,112.4,180.4,111.9,180.4,111.3z M182.5,111.2c0,0.5,0.1,0.9,0.4,1.2
				s0.6,0.5,1,0.5c0.4,0,0.8-0.2,1-0.5c0.3-0.3,0.4-0.7,0.4-1.2c0-0.5-0.1-0.9-0.4-1.2c-0.3-0.3-0.6-0.5-1-0.5c-0.4,0-0.7,0.1-1,0.4
				C182.6,110.4,182.5,110.8,182.5,111.2z"/>
			<path class="st1" d="M194.9,108.2v6.2h-2v-4l-1.3,0.5l-0.8-1.6l2.7-1.2H194.9z"/>
			<path class="st1" d="M204,109l-2.3,6.3l-2-0.5l2.1-5h-3l-0.2-1.6h5L204,109z"/>
		</g>
	</g>
</g>
</svg>
