<svg xmlns="http://www.w3.org/2000/svg" viewBox="0 0 221.86 221.86"><defs><style>.cls-1{fill:#e0be4f;}.cls-2{fill:#fff;}</style></defs><title>bh-header</title><g id="Layer_2" data-name="Layer 2"><g id="Layer_1-2" data-name="Layer 1"><path class="cls-1" d="M56.89,64.62,54,68.1l-8.81-7.44L47.9,57.4a5.39,5.39,0,0,1,2.61-1.84,2.79,2.79,0,0,1,2.65.69A2.84,2.84,0,0,1,54,58.46a3.81,3.81,0,0,1,1.68-.17,2.87,2.87,0,0,1,1.51.69,2.9,2.9,0,0,1,1.15,2.62A5.64,5.64,0,0,1,56.89,64.62Zm-7.51-5.68L48.49,60l1.83,1.54.75-.88a3,3,0,0,0,.69-1.27.92.92,0,0,0-.3-1Q50.5,57.63,49.39,58.95Zm3.79,2.51-1.24,1.46L54,64.71l1.19-1.41a2.22,2.22,0,0,0,.58-1.22,1.13,1.13,0,0,0-.43-1,1.3,1.3,0,0,0-1.11-.33A1.94,1.94,0,0,0,53.17,61.46Z"/><path class="cls-1" d="M67.61,51.72l1.57,1.39L62.8,58.39,55.45,49.5l5.61-4.64,1.58,1.4-3.82,3.16,1.66,2,2.82-2.34,1.58,1.4L61.8,53l1.72,2.08Z"/><path class="cls-1" d="M71.54,43.5l3.29,6-2.32,1.27L67,40.68l2.23-1.22,7.63,3.79-3.33-6.12,2.32-1.27L81.36,46l-2.23,1.22Z"/><path class="cls-1" d="M99.34,28.9l2.26,11.31L99,40.73l-.92-4.61L93.88,37l.92,4.61-2.59.52L89.94,30.78l2.58-.62.95,4.74,4.21-.84-.93-4.64Z"/><path class="cls-1" d="M111.75,28a5.94,5.94,0,0,1,3.1.84,5.25,5.25,0,0,1,2,2.18,7,7,0,0,1-.14,6.16,5.38,5.38,0,0,1-2.1,2.11,6,6,0,0,1-3,.74,5.91,5.91,0,0,1-3.08-.84,5.31,5.31,0,0,1-2-2.18,6.9,6.9,0,0,1,.13-6.14,5.43,5.43,0,0,1,2.1-2.12A6,6,0,0,1,111.75,28Zm-3.17,6a4.24,4.24,0,0,0,.78,2.72,2.69,2.69,0,0,0,2.21,1.08,2.85,2.85,0,0,0,2.71-1.69,5,5,0,0,0,.44-2.11,4.71,4.71,0,0,0-.34-1.92,3.12,3.12,0,0,0-1-1.35,2.83,2.83,0,0,0-3.15-.06A3.33,3.33,0,0,0,109,32,4.55,4.55,0,0,0,108.59,34Z"/><path class="cls-1" d="M130.14,42.36l-.18-8.1-3.87,7.1-2.42-.6L123,28.86l2.63.33.05,8.61,3.86-7.47,2.57.64,0,8.43L136,31.94l2.57.64L132.54,43Z"/><path class="cls-1" d="M138.13,44.91l9.16-8.28,2.22,1.13L148.24,49.9,145.77,49l.38-2.8-3.73-1.9-1.93,1.81ZM144,42.76,146.41,44l.41-3.8Z"/><path class="cls-1" d="M151.38,52.22l7.11-9.08,3.35,2.63a5.57,5.57,0,0,1,2,2.8,3.23,3.23,0,0,1-.7,3,3.39,3.39,0,0,1-1.48,1.12,3.49,3.49,0,0,1-1.78.18l-.81,5.4-2.34-1.83.77-4.48-1.63-1.28-2.47,3.15Zm9.08-4.82-1.2-.94-2,2.59,1.23,1a2.16,2.16,0,0,0,1.37.52,1.45,1.45,0,0,0,1.16-.61,1.51,1.51,0,0,0,.37-1.3A2.29,2.29,0,0,0,160.46,47.4Z"/><path class="cls-1" d="M165,64.65,161.86,61l8.75-7.52,3.14,3.65a5.61,5.61,0,0,1,1.37,2.71,4.61,4.61,0,0,1-.34,2.69,7.52,7.52,0,0,1-4.62,3.91,4.76,4.76,0,0,1-2.76-.11A5.59,5.59,0,0,1,165,64.65Zm7.11-6.12-1.39-1.62-5.49,4.72,1.32,1.53a2.49,2.49,0,0,0,2,.95,4.35,4.35,0,0,0,2.6-1.25,4.39,4.39,0,0,0,1.53-2.21A2.29,2.29,0,0,0,172.09,58.53Z"/><path class="cls-1" d="M51.78,169.27l-3.35-3.41,8.22-8.09L60,161.2a5.62,5.62,0,0,1,1.54,2.61,4.61,4.61,0,0,1-.15,2.71,7.52,7.52,0,0,1-4.35,4.21,4.77,4.77,0,0,1-2.76.08A5.58,5.58,0,0,1,51.78,169.27Zm6.69-6.58L57,161.17l-5.16,5.08,1.42,1.44a2.49,2.49,0,0,0,2.08.81,4.35,4.35,0,0,0,2.51-1.42,4.4,4.4,0,0,0,1.37-2.3A2.29,2.29,0,0,0,58.46,162.69Z"/><path class="cls-1" d="M68.37,180l-.92,1.88-6.8-4.72,6.58-9.48,6,4.15-.92,1.9-4.07-2.82-1.48,2.13,3,2.09-.92,1.9-3.27-2.27L64,177Z"/><path class="cls-1" d="M72.47,183.87,74,182.32a7.73,7.73,0,0,0,1,1.06,5,5,0,0,0,1.19.83,2.4,2.4,0,0,0,1.31.29.9.9,0,0,0,.75-.52.76.76,0,0,0-.06-.69,11.31,11.31,0,0,0-.71-1.14q-.12-.15-.34-.48-.75-1.12-1.15-1.81a4.84,4.84,0,0,1-.55-1.53,2.6,2.6,0,0,1,.21-1.62,2.9,2.9,0,0,1,1.16-1.26,3.36,3.36,0,0,1,1.78-.42,5.35,5.35,0,0,1,2.16.55,6.59,6.59,0,0,1,1.48,1,6.28,6.28,0,0,1,1.15,1.26l-1.56,1.41a10.46,10.46,0,0,0-1-1,4.55,4.55,0,0,0-1-.61,1.83,1.83,0,0,0-1-.2.82.82,0,0,0-.67.48.83.83,0,0,0,0,.73,6.36,6.36,0,0,0,.68,1.06,4.06,4.06,0,0,1,.38.51q.8,1.16,1.2,1.84a4.72,4.72,0,0,1,.55,1.51,2.63,2.63,0,0,1-.22,1.63,2.84,2.84,0,0,1-1.2,1.31,3.51,3.51,0,0,1-1.89.4,6.12,6.12,0,0,1-2.34-.63,7.58,7.58,0,0,1-1.59-1.06A6.52,6.52,0,0,1,72.47,183.87Z"/><path class="cls-1" d="M91,179.68l-3.41,11-2.53-.78,3.41-11Z"/><path class="cls-1" d="M101.51,189l-2.16-.33.51-1.93,4.31.65-.87,5.79a5.84,5.84,0,0,1-1.79.36,9.79,9.79,0,0,1-2.07-.08,6.4,6.4,0,0,1-3-1.21,5.17,5.17,0,0,1-1.74-2.37,6.4,6.4,0,0,1-.26-3.18,6.12,6.12,0,0,1,1.27-3,5.56,5.56,0,0,1,2.5-1.78,6.5,6.5,0,0,1,3.2-.28,8.4,8.4,0,0,1,1.73.48,5.37,5.37,0,0,1,1.55.87l-1.06,1.69q-.83-.4-1.35-.59a6,6,0,0,0-1.16-.29,3.42,3.42,0,0,0-1.72.18,3.22,3.22,0,0,0-1.45,1.1,4.27,4.27,0,0,0-.79,2,4.41,4.41,0,0,0,.13,2.09,3,3,0,0,0,2.5,2.11,8.12,8.12,0,0,0,1.38.07Z"/><path class="cls-1" d="M112.27,187.15l.33,6.88-2.64.13-.56-11.52,2.54-.12,5.22,6.73-.34-7,2.64-.13.56,11.52-2.54.12Z"/><path class="cls-1" d="M129.65,188.29a1.36,1.36,0,0,1-1.07-.16,1.34,1.34,0,0,1-.63-.86,1.39,1.39,0,0,1,1-1.7,1.34,1.34,0,0,1,1.06.16,1.38,1.38,0,0,1,.62.88,1.36,1.36,0,0,1-.16,1A1.33,1.33,0,0,1,129.65,188.29Z"/><path class="cls-1" d="M141.47,184.25l1.47,3.37-2.43,1.06-4.61-10.57,3.9-1.7a6.17,6.17,0,0,1,2.33-.55,3.56,3.56,0,0,1,3.5,2.29,3.52,3.52,0,0,1,.26,2.25,4,4,0,0,1-1.08,1.91,6.44,6.44,0,0,1-2,1.35Zm-.89-5.85-1.4.61,1.44,3.3,1.43-.62a2,2,0,0,0,1.08-1,1.64,1.64,0,0,0,0-1.38,1.8,1.8,0,0,0-1-1.07A2.07,2.07,0,0,0,140.58,178.4Z"/><path class="cls-1" d="M157,174.63l-1.81,1.23-.93-1.77,3.61-2.45,3.29,4.84a5.83,5.83,0,0,1-1.08,1.48,9.77,9.77,0,0,1-1.58,1.35,6.39,6.39,0,0,1-3,1.15,5.16,5.16,0,0,1-2.89-.56,6.38,6.38,0,0,1-2.35-2.16,6.12,6.12,0,0,1-1.11-3.06,5.57,5.57,0,0,1,.63-3,6.49,6.49,0,0,1,2.16-2.38,8.32,8.32,0,0,1,1.6-.82,5.34,5.34,0,0,1,1.73-.42l.37,2q-.88.27-1.39.49a5.92,5.92,0,0,0-1,.58,3.42,3.42,0,0,0-1.14,1.3,3.22,3.22,0,0,0-.32,1.8,4.25,4.25,0,0,0,.78,2,4.4,4.4,0,0,0,1.52,1.45,3,3,0,0,0,3.26-.15,8.06,8.06,0,0,0,1.06-.88Z"/><path class="cls-1" d="M165.22,157.77l8.21,8.1-1.86,1.88-3.34-3.3-3,3.05,3.34,3.3-1.86,1.88-8.21-8.1,1.79-2,3.44,3.39,3-3.05-3.37-3.32Z"/><path class="cls-2" d="M21.67,113.83l.19,1.57H16.4v-7.45h4.94l.19,1.57H18.39v1.36h2.29l.19,1.57H18.39v1.39Z"/><path class="cls-2" d="M27.26,114.94l.66-1.5a3.57,3.57,0,0,0,.82.32,3.41,3.41,0,0,0,.92.15,1.21,1.21,0,0,0,.7-.18.5.5,0,0,0,.26-.4.37.37,0,0,0-.19-.28q-.19-.14-.62-.39l-.34-.2q-.75-.44-1.16-.73a3.06,3.06,0,0,1-.75-.75,1.74,1.74,0,0,1-.33-1,1.86,1.86,0,0,1,.34-1.1,2.28,2.28,0,0,1,1-.76A3.62,3.62,0,0,1,30,107.8a4.4,4.4,0,0,1,1.17.16,3.53,3.53,0,0,1,1,.45l-.59,1.35a8.39,8.39,0,0,0-.89-.26,3.32,3.32,0,0,0-.69-.07.86.86,0,0,0-.53.15.45.45,0,0,0-.2.37.36.36,0,0,0,.17.29,4.79,4.79,0,0,0,.56.33l.39.22a12.64,12.64,0,0,1,1.15.73,3.44,3.44,0,0,1,.78.79,1.73,1.73,0,0,1,.32,1,1.86,1.86,0,0,1-.36,1.13,2.4,2.4,0,0,1-1,.78,4,4,0,0,1-1.57.29,5.52,5.52,0,0,1-1.3-.18A4.27,4.27,0,0,1,27.26,114.94Z"/><path class="cls-2" d="M37.83,107.94h6.38l.19,1.57H42v5.89H40v-5.89H37.83Z"/><path class="cls-2" d="M50.66,115.4a1,1,0,0,1-.72-.29,1,1,0,0,1-.29-.71,1,1,0,0,1,1-1,1,1,0,0,1,.71.29,1,1,0,0,1,.29.72,1,1,0,0,1-.29.71A1,1,0,0,1,50.66,115.4Z"/><path class="cls-2" d="M173.22,109.05a3.43,3.43,0,0,1,1.92.47,1.63,1.63,0,0,1,.7,1.46,2.09,2.09,0,0,1-.39,1.21,6.75,6.75,0,0,1-1.21,1.25l-.45.38h2l.13,1.57h-5v-1.16l2.07-1.8.25-.21a5.64,5.64,0,0,0,.59-.56.7.7,0,0,0,.19-.46.42.42,0,0,0-.24-.39,1.4,1.4,0,0,0-.67-.13,2.77,2.77,0,0,0-.93.18,5.7,5.7,0,0,0-.87.38l-.25-1.62A4,4,0,0,1,173.22,109.05Z"/><path class="cls-2" d="M179.43,112.28a3.1,3.1,0,0,1,1.7-2.82,3.84,3.84,0,0,1,1.8-.42,3.88,3.88,0,0,1,1.8.41,3.07,3.07,0,0,1,1.7,2.8A3.23,3.23,0,0,1,186,114a3.11,3.11,0,0,1-1.25,1.17,3.82,3.82,0,0,1-1.81.42,3.76,3.76,0,0,1-1.79-.42,3.14,3.14,0,0,1-1.24-1.17A3.18,3.18,0,0,1,179.43,112.28Zm2.06,0a1.78,1.78,0,0,0,.41,1.21,1.37,1.37,0,0,0,2.06,0,1.71,1.71,0,0,0,.41-1.17,1.69,1.69,0,0,0-.41-1.17,1.41,1.41,0,0,0-2.06,0A1.61,1.61,0,0,0,181.49,112.25Z"/><path class="cls-2" d="M193.86,109.19v6.21h-2v-4l-1.27.55-.78-1.6,2.72-1.17Z"/><path class="cls-2" d="M203,110l-2.29,6.26-2-.51,2.09-5h-3l-.19-1.57h5Z"/><path class="cls-2" d="M110.93,0A110.93,110.93,0,1,0,221.86,110.93,111.05,111.05,0,0,0,110.93,0Zm5.35,114.63V145.8a37,37,0,0,1-10.7,0V114.63H101.2v30.15a35.2,35.2,0,0,1,0-67.69v30.46h4.38V76.06a37,37,0,0,1,10.7,0v31.49h4.38V77.08a35.2,35.2,0,0,1,0,67.69V114.63Zm32.13-17.39L212.62,71.9a108.88,108.88,0,0,1,0,78.06l-64.23-25.3a39.93,39.93,0,0,0,0-27.42ZM110.93,2a109.1,109.1,0,0,1,101,68L147.67,95.37a39.9,39.9,0,0,0-73.48,0L10,70A109.1,109.1,0,0,1,110.93,2ZM9.23,71.9,73.45,97.24a39.93,39.93,0,0,0,0,27.4L9.23,150a108.88,108.88,0,0,1,0-78.06Zm101.69,148a109.1,109.1,0,0,1-101-68L74.2,126.5a39.9,39.9,0,0,0,73.46,0l64.23,25.3A109.1,109.1,0,0,1,110.93,219.86Z"/><rect class="cls-2" x="106.82" y="124.26" width="8.22" height="4.6"/><rect class="cls-2" x="106.82" y="93.99" width="8.22" height="4.6"/><path class="cls-2" d="M123.35,113.39c3.87,0,5.86,2.51,5.86,5.38,0,3.4-2.2,5.49-5.86,5.49H121.9v4.6h2.6c6.43,0,10.09-3.92,10.09-9.41,0-4.23-3-8-6.74-8.57a7.89,7.89,0,0,0,6.07-8c0-5.07-3.61-8.89-9.83-8.89H121.9v4.6h1.19c3.5,0,5.44,2.25,5.44,5.12s-1.93,5.07-5.44,5.07H95V98.59h5V94H89.78v34.87H100v-4.6H95V113.39h28.34Z"/></g></g></svg>