<?xml version="1.0" encoding="utf-8"?>
<!-- Generator: Adobe Illustrator 21.0.0, SVG Export Plug-In . SVG Version: 6.00 Build 0)  -->
<svg version="1.1" id="Layer_1" xmlns="http://www.w3.org/2000/svg" xmlns:xlink="http://www.w3.org/1999/xlink" x="0px" y="0px"
	 viewBox="0 0 38.1 38.1" style="enable-background:new 0 0 38.1 38.1;" xml:space="preserve">
<style type="text/css">
	.st0{fill:#333333;}
</style>
<title>bh-logo</title>
<g id="Layer_2">
	<g id="Layer_1-2">
		<rect x="17.1" y="25.4" class="st0" width="3.9" height="2.2"/>
		<rect x="17.1" y="11" class="st0" width="3.9" height="2.2"/>
		<path class="st0" d="M27.1,19c1.7-0.4,2.9-2,2.9-3.8c0-2.4-1.7-4.2-4.7-4.2h-1v2.2h0.6c1.3-0.1,2.5,0.8,2.6,2.1c0,0.1,0,0.2,0,0.3
			c0,1.3-1,2.4-2.4,2.4c-0.1,0-0.2,0-0.3,0H11.4v-4.8h2.4V11H9v16.6h4.9v-2.2h-2.4v-5.2H25c1.4-0.1,2.6,0.9,2.8,2.3
			c0,0.1,0,0.2,0,0.3c0.1,1.4-1,2.6-2.4,2.6c-0.1,0-0.3,0-0.4,0h-0.7v2.2h1.2c3.1,0,4.8-1.9,4.8-4.5C30.4,21.2,29.1,19.4,27.1,19z"
			/>
		<path class="st0" d="M19,0C8.5,0,0,8.5,0,19s8.5,19,19,19s19-8.5,19-19C38.1,8.5,29.6,0,19,0z M23.7,35.2V20.8h-2.1v14.9
			c-1.7,0.2-3.4,0.2-5.1,0V20.8h-2.1v14.4C5.5,32.7,0.3,23.4,2.9,14.4c1.6-5.6,6-9.9,11.5-11.5v14.5h2.1v-15c1.7-0.2,3.4-0.2,5.1,0
			v15h2.1V2.9c8.9,2.6,14.1,11.9,11.5,20.8C33.6,29.3,29.3,33.6,23.7,35.2z"/>
	</g>
</g>
</svg>
