<svg xmlns="http://www.w3.org/2000/svg" viewBox="0 0 38.1 38.1"><defs><style>.cls-1{fill:#e0be4f;}</style></defs><title>bh-logo</title><g id="Layer_2" data-name="Layer 2"><g id="Layer_1-2" data-name="Layer 1"><rect class="cls-1" x="17.09" y="25.42" width="3.92" height="2.2"/><rect class="cls-1" x="17.09" y="10.96" width="3.92" height="2.2"/><path class="cls-1" d="M27.13,19A3.77,3.77,0,0,0,30,15.21C30,12.79,28.3,11,25.33,11h-1v2.2h.57a2.37,2.37,0,0,1,2.6,2.45A2.36,2.36,0,0,1,24.86,18H11.45V13.16h2.37V11H9V27.61h4.86v-2.2H11.45V20.23H25a2.54,2.54,0,0,1,2.8,2.57A2.5,2.5,0,0,1,25,25.42h-.69v2.2h1.24c3.07,0,4.82-1.87,4.82-4.49A4.12,4.12,0,0,0,27.13,19Z"/><path class="cls-1" d="M19.05,0A19.05,19.05,0,1,0,38.1,19.05,19.07,19.07,0,0,0,19.05,0ZM23.7,35.21V20.82H21.61V35.7a17.67,17.67,0,0,1-5.11,0V20.82H14.41v14.4a16.81,16.81,0,0,1,0-32.32V17.44H16.5V2.4a17.67,17.67,0,0,1,5.11,0v15H23.7V2.89a16.81,16.81,0,0,1,0,32.32Z"/></g></g></svg>